<?xml version="1.0" encoding="utf-8"?>
<!-- Generator: Adobe Illustrator 19.2.1, SVG Export Plug-In . SVG Version: 6.00 Build 0)  -->
<svg version="1.1" id="Layer_1" xmlns="http://www.w3.org/2000/svg" xmlns:xlink="http://www.w3.org/1999/xlink" x="0px" y="0px"
	 viewBox="0 0 1200 477.3" style="enable-background:new 0 0 1200 477.3;" xml:space="preserve">
<style type="text/css">
	.st0{fill:#108713;}
	.st1{opacity:0.5;fill:#492BC2;}
	.st2{opacity:0.5;fill:#D96304;}
	.st3{opacity:0.5;fill:#108713;}
</style>
<path class="st3" d="M85.1,479.7c47.6,0,942.4-2.1,988.9-2.1c13.5-6.4,13.5-21.9,22.7-34.1c-4.9-4.8-12.4-8.5-29.2-5.9
	c29.2-12.3,37.8-24.5,41.1-31.4c-3.8-4.8-17.3-11.7-36.2-11.2c27.6-17.6,38.9-34.1,43.8-44.2c-10.3-6.4-21.1-9.6-36.2-9.6
	c50.3-42.6,66.5-76.7,74-97c-27,4.8-100,37.8-112.9,56c-2.7-8.5-7-17.6-13.5-18.7c-15.7,9.6-37.3,17.1-55.7,50.6
	c-2.2-19.2-10.3-29.3-15.7-32.5c-10.8,6.4-44.3,22.4-55.7,57c-7-20.3-13.5-26.1-24.3-33.6c-14.6,10.7-38.9,45.8-38.9,62.9
	c-8.6-17.1-22.7-25.6-30.3-26.6c-7.6,9.1-26.5,33.6-25.4,70.4c-7.6-8.5-13.5-12.8-23.2-13.9c-5.5,5-23.2,49-23.2,49
	c-3.2,2.7-13,1.6-16.8,1.6c4.3-21.3,32.4-56,30.3-77.3c-8.6-1.1-10.3-3.7-22.7-1.1c16.8-21.3,32.4-42.6,33.5-72.5
	c-9.8-3.5-32.2-7.1-46.5,1.1c19.9-29.7,28.6-43.1,20.5-74.6c-11.3,0-31.9,3.7-44.3,11.7c5.4-20.3,16.2-44.8,2.2-79.9
	c-13.5,1.6-24.3,5.9-33.5,13.9c3.2-22.4-6.5-56.5-10.8-71.4c-9.7-1.6-17.3,1.1-24.9,5.9c-1.1-22.4-16.2-93.3-40-118.9
	c-17.3,26.6-42.7,92.2-42.7,116.7c-9.7-8-18.9-8-27-5.9c-7,18.7-13.5,48.5-10.3,66.6c-17.3-8.5-23.2-8.5-34-4.8
	c-6.5,16.5-9.7,48,1.1,73.6c-15.7-8-31.3-10.1-42.7-8.5c-0.5,25,4.9,53.8,17.3,72.5c-14-2.1-24.9-4.3-43.2,0.5
	c0,24.5,17.8,56.5,35.1,73.6c-9.7-1.6-14-3.2-28.1,1.1c3.8,17.1,31.3,65.6,37.8,77.3c-0.5,2.1-11.3,1.6-21.1,0.5
	c0.5-10.8-14-41-30.3-47.4c-4.3,4.3-8.6,1.6-10.8,11.2c-5.4-28.8-8.6-43.7-27-70.4c-11.3,0.5-22.2,11.2-32.4,20.8
	c-8.6-21.3-21.6-48-40-58.6c-11.3,11.7-20,22.4-23.8,33.6c-8.6-20.3-30.3-42.6-54-53.8c-7,5.9-14,13.9-19.5,22.4
	c-14-13.9-28.6-32.5-53.5-45.3c-6.5,4.8-8.6,10.1-8.1,20.3c-17.3-8.5-72.9-49-121-58.1c15.7,35.2,40,73.6,57.8,93.8
	c-8.1,4.3-13,9.1-16.8,14.4c7.6,12.8,20.5,29.3,37.8,43.7c-12.4,0.5-25.9,6.9-31.3,11.2c10.8,17.1,21.1,25,34,31.4
	c-9.7,4.3-17.3,5.9-21.1,10.1C69.4,462.1,85.1,479.7,85.1,479.7z"/>
<path class="st3" d="M135.2,479.7c47.5,0,940.6-2.1,987-2.1c13.5-6.4,13.5-21.8,22.7-34c-4.9-4.8-12.4-8.5-29.1-5.9
	c29.1-12.2,37.8-24.5,41-31.4c-3.8-4.8-17.3-11.7-36.1-11.2c27.5-17.6,38.8-34,43.7-44.2c-10.2-6.4-21-9.6-36.1-9.6
	c50.2-42.6,66.3-76.6,73.9-96.8c-27,4.8-99.8,37.8-112.7,55.9c-2.7-8.5-7-17.6-13.5-18.6c-15.6,9.6-37.2,17-55.6,50.5
	c-2.2-19.2-10.2-29.3-15.6-32.4c-10.8,6.4-44.2,22.3-55.6,56.9c-7-20.2-13.5-26.1-24.3-33.5c-14.6,10.6-38.8,45.7-38.8,62.8
	c-8.6-17-22.7-25.5-30.2-26.6c-7.6,9-26.4,33.5-25.3,70.2c-7.6-8.5-13.5-12.8-23.2-13.8c-5.5,4.9-23.2,48.9-23.2,48.9
	c-3.2,2.7-12.9,1.6-16.7,1.6c4.3-21.3,32.4-55.9,30.2-77.1c-8.6-1.1-10.2-3.7-22.7-1.1c16.7-21.3,32.4-42.6,33.4-72.3
	c-9.8-3.5-32.2-7.1-46.4,1.1c19.9-29.7,28.5-43,20.5-74.5c-11.3,0-31.8,3.7-44.2,11.7c5.4-20.2,16.2-44.7,2.2-79.8
	c-13.5,1.6-24.3,5.9-33.4,13.8c3.2-22.3-6.5-56.4-10.8-71.3c-9.7-1.6-17.3,1.1-24.8,5.9c-1.1-22.3-16.2-93.1-39.9-118.6
	c-17.3,26.6-42.6,92-42.6,116.5c-9.7-8-18.9-8-27-5.9c-7,18.6-13.5,48.4-10.2,66.5c-17.3-8.5-23.2-8.5-34-4.8
	c-6.5,16.5-9.7,47.9,1.1,73.4c-15.6-8-31.3-10.1-42.6-8.5c-0.5,25,4.9,53.7,17.3,72.3c-14-2.1-24.8-4.3-43.1,0.5
	c0,24.5,17.8,56.4,35.1,73.4c-9.7-1.6-14-3.2-28,1.1c3.8,17,31.3,65.4,37.8,77.1c-0.5,2.1-11.3,1.6-21,0.5c0.5-10.7-14-41-30.2-47.3
	c-4.3,4.3-8.6,1.6-10.8,11.2c-5.4-28.7-8.6-43.6-27-70.2c-11.3,0.5-22.1,11.2-32.4,20.7c-8.6-21.3-21.6-47.9-39.9-58.5
	c-11.3,11.7-20,22.3-23.7,33.5c-8.6-20.2-30.2-42.6-53.9-53.7c-7,5.9-14,13.8-19.4,22.3c-14-13.8-28.6-32.4-53.4-45.2
	c-6.5,4.8-8.6,10.1-8.1,20.2c-17.3-8.5-72.8-48.9-120.8-58c15.6,35.1,39.9,73.4,57.7,93.6c-8.1,4.3-12.9,9-16.7,14.4
	c7.6,12.8,20.5,29.3,37.8,43.6c-12.4,0.5-25.9,6.9-31.3,11.2c10.8,17,21,25,34,31.4c-9.7,4.3-17.3,5.9-21,10.1
	C119.5,462.1,135.2,479.7,135.2,479.7z"/>
<path class="st0" d="M103.5,482.4c48.1,0,953.2-2.2,1000.2-2.2c13.7-6.5,13.7-22.1,23-34.5c-4.9-4.9-12.6-8.6-29.5-5.9
	c29.5-12.4,38.3-24.8,41.5-31.8c-3.8-4.9-17.5-11.9-36.6-11.3c27.9-17.8,39.4-34.5,44.3-44.7c-10.4-6.5-21.3-9.7-36.6-9.7
	c50.8-43.1,67.2-77.6,74.9-98.1c-27.3,4.9-101.1,38.3-114.2,56.6c-2.7-8.6-7.1-17.8-13.7-18.9c-15.8,9.7-37.7,17.2-56.3,51.2
	c-2.2-19.4-10.4-29.6-15.8-32.9c-10.9,6.5-44.8,22.6-56.3,57.7c-7.1-20.5-13.7-26.4-24.6-34c-14.8,10.8-39.4,46.4-39.4,63.6
	c-8.7-17.2-23-25.9-30.6-27c-7.7,9.2-26.8,34-25.7,71.2c-7.7-8.6-13.7-12.9-23.5-14c-5.6,5-23.5,49.6-23.5,49.6
	c-3.3,2.7-13.1,1.6-16.9,1.6c4.4-21.6,32.8-56.6,30.6-78.2c-8.7-1.1-10.4-3.8-23-1.1c16.9-21.6,32.8-43.1,33.9-73.3
	c-10-3.6-32.6-7.2-47,1.1c20.2-30.1,28.9-43.6,20.8-75.5c-11.5,0-32.2,3.8-44.8,11.9c5.5-20.5,16.4-45.3,2.2-80.9
	c-13.7,1.6-24.6,5.9-33.9,14c3.3-22.6-6.6-57.1-10.9-72.2c-9.8-1.6-17.5,1.1-25.1,5.9C645.6,98,630.3,26.3,606.3,0.5
	c-17.5,27-43.2,93.3-43.2,118.1c-9.8-8.1-19.1-8.1-27.3-5.9c-7.1,18.9-13.7,49.1-10.4,67.4c-17.5-8.6-23.5-8.6-34.4-4.9
	c-6.6,16.7-9.8,48.5,1.1,74.4c-15.8-8.1-31.7-10.2-43.2-8.6c-0.5,25.3,4.9,54.4,17.5,73.3c-14.2-2.2-25.1-4.3-43.7,0.5
	c0,24.8,18,57.1,35.5,74.4c-9.8-1.6-14.2-3.2-28.4,1.1c3.8,17.2,31.7,66.3,38.3,78.2c-0.5,2.2-11.5,1.6-21.3,0.5
	c0.5-10.9-14.2-41.5-30.6-48c-4.4,4.3-8.7,1.6-10.9,11.3c-5.5-29.1-8.7-44.2-27.3-71.2c-11.5,0.5-22.4,11.3-32.8,21
	c-8.7-21.6-21.9-48.5-40.4-59.3c-11.5,11.9-20.2,22.6-24,34c-8.7-20.5-30.6-43.1-54.7-54.4c-7.1,5.9-14.2,14-19.7,22.6
	c-14.2-14-29-32.9-54.1-45.8c-6.6,4.9-8.7,10.2-8.2,20.5c-17.5-8.6-73.8-49.6-122.4-58.8c15.8,35.6,40.4,74.4,58.5,94.9
	c-8.2,4.3-13.1,9.2-16.9,14.6c7.7,12.9,20.8,29.6,38.3,44.2c-12.6,0.5-26.2,7-31.7,11.3c10.9,17.2,21.3,25.3,34.4,31.8
	c-9.8,4.3-17.5,5.9-21.3,10.2C87.6,464.6,103.5,482.4,103.5,482.4z"/>
</svg>
