<?xml version="1.0" encoding="utf-8"?>
<!-- Generator: Adobe Illustrator 19.2.1, SVG Export Plug-In . SVG Version: 6.00 Build 0)  -->
<svg version="1.1" id="Layer_1" xmlns="http://www.w3.org/2000/svg" xmlns:xlink="http://www.w3.org/1999/xlink" x="0px" y="0px"
	 viewBox="0 0 1200 477.3" style="enable-background:new 0 0 1200 477.3;" xml:space="preserve">
<style type="text/css">
	.st0{fill:#108713;}
	.st1{opacity:0.5;fill:#492BC2;}
	.st2{opacity:0.5;fill:#D96304;}
	.st3{opacity:0.5;fill:#108713;}
</style>
<g>
	<path class="st3" d="M136.7,480c41.8,0,828-1.9,868.8-1.9c11.9-5.6,11.9-19.2,19.9-30c-4.3-4.2-10.9-7.5-25.6-5.2
		c25.6-10.8,33.2-21.5,36.1-27.6c-3.3-4.2-15.2-10.3-31.8-9.8c24.2-15.5,34.2-30,38.5-38.9c-9-5.6-18.5-8.4-31.8-8.4
		c44.2-37.5,58.4-67.4,65-85.2c-23.7,4.2-87.8,33.2-99.2,49.2c-2.4-7.5-6.2-15.5-11.9-16.4c-13.8,8.4-32.8,15-48.9,44.5
		c-1.9-16.9-9-25.8-13.8-28.6c-9.5,5.6-38.9,19.7-48.9,50.1c-6.2-17.8-11.9-22.9-21.4-29.5c-12.8,9.4-34.2,40.3-34.2,55.3
		c-7.6-15-19.9-22.5-26.6-23.4c-6.6,8-23.3,29.5-22.3,61.8c-6.6-7.5-11.9-11.2-20.4-12.2c-4.8,4.4-20.4,43.1-20.4,43.1
		c-2.8,2.3-11.4,1.4-14.7,1.4c3.8-18.7,28.5-49.2,26.6-67.9c-7.6-0.9-9-3.3-19.9-0.9c14.7-18.7,28.5-37.5,29.4-63.7
		c-8.6-3.1-28.3-6.3-40.8,0.9c17.5-26.1,25.1-37.9,18-65.6c-10,0-28,3.3-38.9,10.3c4.7-17.8,14.2-39.3,1.9-70.2
		c-11.9,1.4-21.4,5.2-29.4,12.2c2.8-19.7-5.7-49.6-9.5-62.8c-8.5-1.4-15.2,0.9-21.8,5.2c-0.9-19.7-14.2-81.9-35.1-104.4
		c-15.2,23.4-37.5,81-37.5,102.6c-8.5-7-16.6-7-23.7-5.2c-6.2,16.4-11.9,42.6-9,58.5c-15.2-7.5-20.4-7.5-29.9-4.2
		c-5.7,14.5-8.5,42.1,0.9,64.6c-13.8-7-27.5-8.9-37.5-7.5c-0.5,22,4.3,47.3,15.2,63.7c-12.3-1.9-21.8-3.7-38,0.5
		c0,21.5,15.7,49.6,30.9,64.6c-8.5-1.4-12.3-2.8-24.7,0.9c3.3,15,27.5,57.6,33.2,67.9c-0.5,1.9-10,1.4-18.5,0.5
		c0.4-9.5-12.3-36.1-26.6-41.7c-3.8,3.7-7.6,1.4-9.5,9.8c-4.7-25.3-7.6-38.4-23.7-61.8c-10,0.5-19.5,9.8-28.5,18.3
		c-7.6-18.7-19-42.1-35.1-51.5c-10,10.3-17.6,19.7-20.9,29.5c-7.6-17.8-26.6-37.5-47.5-47.3c-6.2,5.2-12.3,12.2-17.1,19.7
		c-12.3-12.2-25.2-28.6-47-39.8c-5.7,4.2-7.6,8.9-7.1,17.8c-15.2-7.5-64.1-43.1-106.4-51c13.8,30.9,35.1,64.6,50.8,82.4
		c-7.1,3.7-11.4,8-14.7,12.6c6.6,11.2,18,25.8,33.2,38.4c-10.9,0.5-22.8,6.1-27.5,9.8c9.5,15,18.5,22,29.9,27.6
		c-8.5,3.7-15.2,5.2-18.5,8.9C122.9,464.6,136.7,480,136.7,480z"/>
	<path class="st3" d="M180.8,480c41.7,0,826.4-1.9,867.2-1.9c11.8-5.6,11.8-19.2,19.9-29.9c-4.3-4.2-10.9-7.5-25.6-5.1
		c25.6-10.8,33.2-21.5,36-27.6c-3.3-4.2-15.2-10.3-31.7-9.8c24.2-15.4,34.1-29.9,38.4-38.8c-9-5.6-18.5-8.4-31.7-8.4
		c44.1-37.4,58.3-67.3,64.9-85.1c-23.7,4.2-87.7,33.2-99,49.1c-2.4-7.5-6.2-15.4-11.8-16.4c-13.7,8.4-32.7,15-48.8,44.4
		c-1.9-16.8-9-25.7-13.7-28.5c-9.5,5.6-38.9,19.6-48.8,50c-6.2-17.8-11.8-22.9-21.3-29.4c-12.8,9.3-34.1,40.2-34.1,55.2
		c-7.6-15-19.9-22.4-26.5-23.4c-6.6,7.9-23.2,29.4-22.3,61.7c-6.6-7.5-11.8-11.2-20.4-12.2c-4.8,4.3-20.4,43-20.4,43
		c-2.8,2.3-11.4,1.4-14.7,1.4c3.8-18.7,28.4-49.1,26.5-67.8c-7.6-0.9-9-3.3-19.9-0.9c14.7-18.7,28.4-37.4,29.4-63.6
		c-8.6-3.1-28.3-6.2-40.8,0.9c17.5-26.1,25.1-37.8,18-65.4c-10,0-28,3.3-38.9,10.3c4.7-17.8,14.2-39.3,1.9-70.1
		c-11.8,1.4-21.3,5.1-29.4,12.2c2.8-19.6-5.7-49.5-9.5-62.6c-8.5-1.4-15.2,0.9-21.8,5.1c-0.9-19.6-14.2-81.8-35.1-104.2
		c-15.2,23.4-37.4,80.9-37.4,102.4c-8.5-7-16.6-7-23.7-5.1c-6.2,16.4-11.8,42.5-9,58.4c-15.2-7.5-20.4-7.5-29.9-4.2
		c-5.7,14.5-8.5,42.1,0.9,64.5c-13.7-7-27.5-8.9-37.4-7.5c-0.5,22,4.3,47.2,15.2,63.6c-12.3-1.9-21.8-3.7-37.9,0.5
		c0,21.5,15.6,49.5,30.8,64.5c-8.5-1.4-12.3-2.8-24.6,0.9c3.3,15,27.5,57.5,33.2,67.8c-0.5,1.9-10,1.4-18.5,0.5
		c0.4-9.4-12.3-36-26.5-41.6c-3.8,3.7-7.6,1.4-9.5,9.8c-4.7-25.2-7.6-38.3-23.7-61.7c-10,0.5-19.4,9.8-28.4,18.2
		c-7.6-18.7-19-42.1-35.1-51.4c-10,10.3-17.5,19.6-20.9,29.4c-7.6-17.8-26.5-37.4-47.4-47.2c-6.2,5.1-12.3,12.2-17.1,19.6
		c-12.3-12.2-25.1-28.5-46.9-39.7c-5.7,4.2-7.6,8.9-7.1,17.8c-15.2-7.5-64-43-106.1-50.9c13.7,30.8,35.1,64.5,50.7,82.3
		c-7.1,3.7-11.4,7.9-14.7,12.6c6.6,11.2,18,25.7,33.2,38.3c-10.9,0.5-22.7,6.1-27.5,9.8c9.5,15,18.5,22,29.9,27.6
		c-8.5,3.7-15.2,5.1-18.5,8.9C167,464.6,180.8,480,180.8,480z"/>
	<path class="st0" d="M152.9,482.4c42.3,0,837.5-1.9,878.8-1.9c12-5.7,12-19.4,20.2-30.3c-4.3-4.3-11-7.6-25.9-5.2
		c25.9-10.9,33.6-21.8,36.5-27.9c-3.4-4.3-15.4-10.4-32.2-9.9c24.5-15.6,34.6-30.3,38.9-39.3c-9.1-5.7-18.7-8.5-32.2-8.5
		c44.7-37.9,59.1-68.2,65.8-86.2c-24,4.3-88.8,33.6-100.4,49.7c-2.4-7.6-6.2-15.6-12-16.6c-13.9,8.5-33.1,15.2-49.5,45
		c-1.9-17.1-9.1-26-13.9-28.9c-9.6,5.7-39.4,19.9-49.5,50.7c-6.2-18-12-23.2-21.6-29.8c-13,9.5-34.6,40.7-34.6,55.9
		c-7.7-15.2-20.2-22.7-26.9-23.7c-6.7,8.1-23.5,29.8-22.6,62.5c-6.7-7.6-12-11.4-20.6-12.3c-4.9,4.4-20.6,43.6-20.6,43.6
		c-2.9,2.4-11.5,1.4-14.9,1.4c3.8-18.9,28.8-49.7,26.9-68.7c-7.7-0.9-9.1-3.3-20.2-0.9c14.9-18.9,28.8-37.9,29.8-64.4
		c-8.7-3.1-28.6-6.3-41.3,0.9c17.7-26.4,25.4-38.3,18.2-66.3c-10.1,0-28.3,3.3-39.4,10.4c4.8-18,14.4-39.8,1.9-71
		c-12,1.4-21.6,5.2-29.8,12.3c2.9-19.9-5.8-50.2-9.6-63.5c-8.6-1.4-15.4,0.9-22.1,5.2c-1-19.9-14.4-82.9-35.5-105.6
		c-15.4,23.7-37.9,81.9-37.9,103.7c-8.6-7.1-16.8-7.1-24-5.2c-6.2,16.6-12,43.1-9.1,59.2c-15.4-7.6-20.6-7.6-30.3-4.3
		c-5.8,14.7-8.6,42.6,1,65.4c-13.9-7.1-27.9-9-37.9-7.6c-0.5,22.3,4.3,47.8,15.4,64.4c-12.5-1.9-22.1-3.8-38.4,0.5
		c0,21.8,15.8,50.2,31.2,65.4c-8.6-1.4-12.5-2.8-25,0.9c3.4,15.2,27.9,58.3,33.6,68.7c-0.5,1.9-10.1,1.4-18.7,0.5
		c0.4-9.6-12.5-36.5-26.9-42.2c-3.8,3.8-7.7,1.4-9.6,9.9c-4.8-25.6-7.7-38.8-24-62.5c-10.1,0.5-19.7,9.9-28.8,18.5
		c-7.7-18.9-19.2-42.6-35.5-52.1c-10.1,10.4-17.8,19.9-21.1,29.8c-7.7-18-26.9-37.9-48-47.8c-6.2,5.2-12.5,12.3-17.3,19.9
		c-12.5-12.3-25.5-28.9-47.5-40.3c-5.8,4.3-7.7,9-7.2,18c-15.4-7.6-64.8-43.6-107.6-51.6c13.9,31.3,35.5,65.4,51.4,83.4
		c-7.2,3.8-11.5,8.1-14.9,12.8c6.7,11.4,18.2,26,33.6,38.8c-11,0.5-23,6.2-27.9,9.9c9.6,15.2,18.7,22.3,30.3,27.9
		c-8.6,3.8-15.4,5.2-18.7,9C139,466.8,152.9,482.4,152.9,482.4z"/>
</g>
<path class="st0" d="M1198.2,414.5c0.5-6.4-1.3-8.8-4.3-1c-0.8,2.2-1.8,5.8-4.3,8.3c-2.3-3.8-5-7.3-7.4-11.1
	c-12.4-19.5-7.6-1.5-4.6,6c3.5,8.6,6.2,14.5,10.3,22.7c-0.1,0.6-0.1,1.2-0.2,1.8c-0.6-1-1.1-2-1.8-2.9c-8-9.4-6.2-5.4-8.1-0.7
	c0.5-2.6,0.9-5.3,1.3-7.9c0.5-3.1-2.5-17.1-5-17.8s-4.2,12-4.7,15.1c-0.9,5.8-1.9,11.5-3,17.3c-3.1-14.4-8.9-28-19.6-39.1
	c-2.5-2.5-9.8-7-11.5-4.8c-1.4,1.8,2.4,9.8,4.4,11.9c4.5,4.7,8,9.9,10.8,15.5c-0.6,0-1.1,0-1.7,0.2c-0.5-0.3-1-0.7-1.5-1
	c-2.1-1.2-8.1-4.3-9.5-3.1c-2.3,2,1,9.7,4.4,11.7c0.4,0.2,0.8,0.5,1.2,0.7c-2.5,7-4.6,14.1-6.4,21.3c0-0.2-0.1-0.4-0.1-0.5
	c-0.5-3-1.2-6-1.9-8.9c2.2-14.9,1.6-30.5,0.8-45.4c-0.2-3.2-4.2-11.2-6.7-11.2c-2.5,0-3.5,8-3.3,11.2c0.4,7.9,0.9,16,0.9,24.3
	c-5.2-9.1-12.2-17-21.4-22.5c-2.8-1.7-11.2-3.8-12.5-1.7c-1.3,2.2,4.6,8.7,7.4,10.3c13.2,7.9,20.7,21.6,24.8,36
	c-0.8,4.6-1.9,9.1-3.4,13.4c-1.7-2.5-3.5-4.9-5.5-7.2c0.3-6.9-0.3-13.9-1.6-20.9c-0.6-3-5.1-12.2-7.5-11.6c-2.5,0.6-2.8,11-2.2,14.3
	c0.5,2.5,0.8,5.1,1.1,7.6c-1.6-1.4-3.2-2.8-4.8-4.2c1.5-7,2.6-14.1,3.1-21.3c0.2-3.2-1.5-8.9-4-8.9c-2.5,0-5.8,5.7-6.1,8.9
	c-0.4,4.8-1,9.6-1.9,14.4c-4.7-3.5-9.4-6.8-14-10c-2.6-1.8-8.6-4.1-9.9-2c-1.3,2.2,2.1,8.8,4.8,10.7c5.5,3.7,11.2,7.7,16.7,12
	c-2,7.7-4.6,15.2-7.8,22.4c0.6-8.3-0.5-16.7-3.4-24.7c-1.1-3-6.7-12.2-9.1-11.6c-2.4,0.6-1.7,11.2-0.6,14.3c1.2,3.4,2.1,7,2.6,10.5
	c-1.5-1.5-6-10-7.8-9.6c-2.4,0.6-1.9,11-0.7,14c1.4,3.4,1.8,7,1.3,10.4c-0.2-0.1-0.3-0.1-0.5-0.2c-1-3.8-2.1-7.6-3.1-11.4
	c-0.8-3.1-5-11.7-7.4-11.1c-2.5,0.6-3.1,10.6-2.2,13.7c0.8,3,1.6,5.9,2.4,8.9c-4.2,0-8.5-0.1-12.5-0.4l-8.5,7.6l55.7,1
	c1.8-4,3.5-7.3,5-11.1c0.3,3.8,0.8,7.1,1.6,11.1h17.7c0.7-3,1.3-5.4,1.8-7.8c0.8,1.3,1.5,2.8,2.2,4.1c-0.7,1.2-1.4,1.7-2.2,3.7h28.9
	c0-1,0.1-0.4,0.1-0.6c0.2,0.2,0.5-0.4,0.7,0.6h25.6c0-1,0-2.2,0-3.1c2.9-10.5,5.3-21.3,7.3-32c0.1,0.2,0.2,0.3,0.3,0.5
	c2.5,3.8,4.1,7.7,5.6,11.8c-1-1.2-3.1-7.3-4.7-7.3c-2.7,0-5.2,7.1-5.2,10.3v19.9h24.4c0.1-6-0.6-11.9-1.9-17.5
	c0.1-0.7-0.1-1.6,0-2.3c1.9,5.4,3.5,10.7,4.5,16.3v-32.3c0-1.7-1.3-3.4-2-5.1C1198.8,430,1197.6,422,1198.2,414.5z M1103.9,471.3
	c-0.6-3.8-0.9-7.6-0.9-11.5c0-3.5-3-7.2-5.8-6.8c0.4-1.2,0.8-0.4,1.1-1.6c2.7,2.4,5.2,4.9,7.6,7.5
	C1105.5,463.1,1104.9,467.2,1103.9,471.3z M1128.1,475.2c-0.2-0.4-0.3-0.9-0.5-1.3c0.2-0.5,0.5-1.1,0.7-1.6
	C1128.3,473.3,1128.2,474.3,1128.1,475.2z M1145.8,464.5c0-0.1,0-0.1,0-0.2c3.5,1.7,6.2,4.3,7.6,7.6
	C1150.5,469.9,1147.9,467.4,1145.8,464.5z M1150.4,455.4c-0.8-0.3-1.5-0.5-2.2-0.5c0.6-2.2,1.3-4.5,1.9-6.7c0,0.1,0.1,0.1,0.1,0.2
	c2.6,3.1,4.4,6.6,5.6,10.3C1154.2,457.4,1152.4,456.3,1150.4,455.4z M1183,467.9v-9.5c0-0.1,0.7-0.1,0.7-0.2c0.3,1,0.3,2.1,0.5,3.1
	C1184,463.5,1185,465.7,1183,467.9z"/>
<g>
	<path class="st0" d="M43.7,477c-3.2-14.5-8.4-28.5-13.5-42.4c-1.2-3.4-7.9-9-10.4-7.9c-1.9,0.9-0.2,7.9,0.8,10.5
		c3.7,10.1,7.7,20.5,10.9,31.2c-0.4-0.1-0.8-0.2-1.1-0.4c-2.1-1.6-4.2-3.3-6.3-5c-1-5.1-2.4-10.1-4.2-15.1c-0.9-2.4-3-3.4-5-3.4
		c-0.2-0.8-0.3-1.5-0.4-2.3c-2.2-14.1-0.8-28.6-6.3-42.1c-1.5-3.6-5.6-10.1-8.1-8.6v15.7c3.8,12.6,2.6,26,4.9,38.9
		c-0.3-0.3-0.7-0.6-1-0.9c-1.2-1.2-2.6-1.6-4-1.4v11.4c0.3,0.3,0.5,0.5,0.8,0.8c0,0.2,0,0.4,0,0.6c0.7,6.8,1.3,13.6,2,20.4h10
		l-1.1-11.3c1,0.8,2,1.7,3,2.5c0,0,0.1,0.1,0.1,0.1c0.5,2.9,0.8,5.8,1,8.7h27.9C43.7,477.2,43.7,477.1,43.7,477z"/>
	<path class="st0" d="M92.2,469.5c6.8-22.2,7.4-46.8,5-69.6c-0.3-3-4.8-14.4-7.2-14.6c-2.6-0.2-3.2,11.2-2.8,14.6
		c1,9.7,1.5,19.7,1.2,29.6c-0.3-2.6-3.6-11.7-5.9-11.9c-1.7-0.1-2.3,8-3.3,9.6c-4.9-18.7-10.2-37.5-20.1-54.3
		c-1.6-2.8-10.2-7.8-12.4-6.6c-2.2,1.3,2.1,8.8,3.8,11.6c9.5,16.1,14.4,34,19.1,52c-1.3-0.5-6.6-7.6-7.9-7.1
		c-1.6,0.7,0.9,9.3,0.9,11.6l-0.1,13.6c-2.8-13.4-5.6-26.9-8.4-40.3c-0.6-2.8-3.8-11.1-5.9-10.8c-1.7,0.2-2.3,8.4-3.2,9.9
		c-2.5-12.4-5.5-24.8-10.4-36.6c-1.3-3.2-7.9-10.6-10.4-9.6c-2.1,0.8-0.3,9.5,0.8,12.3c7.3,17.7,10.2,36.7,13.9,55.4
		c-3.5-5.7-8-10.8-14.1-14.3c-2.5-1.4-10.9-7.8-12.3-6.1c-1.7,2.2,4.1,13,7.2,14.7c14.6,8.4,16.9,26.9,21.9,41.5
		c1.6,4.5,3.5,9,5.8,13.3h25c0-12,0.1-24,0.1-36c0.3,1.1,0.6,2.1,0.9,3.2c1.3,4.7,2.7,10.6,4.6,16.6c-0.2,5.9-1.3,11.7-5.3,16.2H97
		C95.1,475,93.5,472.3,92.2,469.5z M87.1,445.6c-0.1-4.9,0-9.7,1.2-14.4c0-0.1,0.1-0.3,0.1-0.4C88.1,435.8,87.7,440.7,87.1,445.6z"
		/>
	<path class="st0" d="M108.7,477.3c2.1-8.5,2-17.5,1.4-26.3c1.5,4.9,2.9,10.1,3.7,15.2c-0.5,3.7-1,7.4-1.7,11.1h22
		c-0.9-3.7-1.5-7.5-1.7-11.4c-0.2-2.6-3.2-11.3-5.2-11.9c-1.5-0.4-1.7,7-2.9,7.8c0.6-6.1,0.8-12.3,0.8-18.5c0-3-2.5-11.4-4.9-11.6
		c-1.3-0.1-2.4,7-3.4,7.8c-1.3-3.3-2.6-6.5-3.9-9.6c-1.4-3.5-8-11.1-10.5-9.7c-1.7,1-0.2,9.9,0.8,12.3c0.8,2,1.6,4.1,2.5,6.2
		c-0.6-0.2-3.5-5.8-4.1-5.8c-2.5,0-2.6,7.1-2.3,10.3c0.9,9.9,1.8,23-1.2,33.9H108.7z"/>
	<path class="st0" d="M134.6,462.7c1.3,4.8,2.2,9.7,2.7,14.5h8.6v-12.1c-1-1.7-1-3.4-1.5-5.1C142.8,453.8,132.9,456.5,134.6,462.7z"
		/>
</g>
</svg>
