<?xml version="1.0" encoding="utf-8"?>
<!-- Generator: Adobe Illustrator 19.2.1, SVG Export Plug-In . SVG Version: 6.00 Build 0)  -->
<svg version="1.1" id="Layer_1" xmlns="http://www.w3.org/2000/svg" xmlns:xlink="http://www.w3.org/1999/xlink" x="0px" y="0px"
	 viewBox="0 0 227.3 227.3" style="enable-background:new 0 0 227.3 227.3;" xml:space="preserve">
<style type="text/css">
	.st0{fill:#FFFFFF;stroke:#000000;stroke-miterlimit:10;}
	.st1{fill:#151E00;}
	.st2{fill:#A6BA2D;stroke:#000000;stroke-width:3;stroke-miterlimit:10;}
	.st3{fill:#AEBF2A;stroke:#000000;stroke-width:3;stroke-miterlimit:10;}
	.st4{fill:#4E6005;stroke:#000000;stroke-width:3;stroke-miterlimit:10;}
	.st5{clip-path:url(#SVGID_2_);fill:#151E00;}
	.st6{clip-path:url(#SVGID_4_);fill:#151E00;}
</style>
<path class="st4" d="M186.3,134.5c-7,3.5-13.5,3.5-22,4.5c4,14,6,33,4,31.5c-19-13-29.1-14.9-36.5-11c-2.8,1.5-5.2,2.3-7.3,2.8
	c-4-15-7-37.7-7.7-40.8c-12-4.5-20,3-40,5.5c7,2.5,10.9,3.1,15.5,6c5,12.5-0.5,30.5,1,40.5c-6-2.5-38.5-31.5-48-40.5
	c10-12,28-42.5,34.5-46c1.5,11.5,0,11.5,6,17.5c7.5-2.5,20.5-8.5,27.5-11c-3.5-3-5-6.5-7.5-16.5s3.5-43,3.5-43s0,0,1.5-12.5
	C99.8,25,92.3,28,82.8,32c0.5,13-0.8,24.5-2,42c-8,5-57.5,55.5-63,59.5s-3.5,8.5-1.5,11.5c7.3,10.9,81,63.5,90.5,61
	c8-2,24-7.5,26-10s-1-13.5,3.5-16s17,8,32,19s28,5,37.5-1.5C203.3,189,189.8,146,186.3,134.5z"/>
</svg>
