<?xml version="1.0" encoding="utf-8"?>
<!-- Generator: Adobe Illustrator 19.2.1, SVG Export Plug-In . SVG Version: 6.00 Build 0)  -->
<svg version="1.1" id="Layer_1" xmlns="http://www.w3.org/2000/svg" xmlns:xlink="http://www.w3.org/1999/xlink" x="0px" y="0px"
	 viewBox="0 0 1151.3 227.3" style="enable-background:new 0 0 1151.3 227.3;" xml:space="preserve">
<style type="text/css">
	.st0{fill:#FFFFFF;stroke:#000000;stroke-miterlimit:10;}
	.st1{fill:#151E00;}
	.st2{fill:#A6BA2D;stroke:#000000;stroke-width:3;stroke-miterlimit:10;}
	.st3{fill:#AEBF2A;stroke:#000000;stroke-width:3;stroke-miterlimit:10;}
</style>
<path class="st1" d="M1138.3,118.5c-68-18-107-81.5-114-91c-7-9.5-10-11.5-16.5-13.5c-4.5-11.5-12.5-10-21.5-10
	c-68.5,10-51.5,89.5-50,100.5c-11.5-7-32.5-41-36-44.5s-13,0.5-16.5,3c-3-2-9.5-2.5-17,2.5s-7,3-11.5,5s-3,0-4.5,4c-3,7-4,27.5-7,40
	c-3-12-14-21.5-18-32c11-5.5,5.5-17,2.5-19.5c6-2,19.5-6,18.5-26s-23.5-26.5-29-26c-15.5-2.5-21.5,1.5-27,4.5
	c-14.5,8-3.5,33,2.5,41.5c-16-0.5-21,28.5-21.5,35c-2.5-2-2-2.5-5.5-1s-20,9.5-18.5,3.5s17.5-62.5,15.5-67s-8.5-11-11.5-13
	s-4.5-1-9.5-0.5c-19.5,8.5-24.5,6-32,6c-1-10-11-11-19.5-10c-10.5,10-35,8-40,14.5c-17.5,20.5-12.5,70.5-13,81
	c-10.5-6.5-31.5-41-37.5-53c-39.5,1-66.5-35-73.5-42S513.8,3,508.3,6c-5.5,3-20,9-24.5,12.5s-5,8-2,14s17.3,28,20.8,36.5
	s3.7,41-0.8,50.5c-1-9-6-47.5-10.5-57S475,45.4,468.8,48c-10.2,4.3-25.2,8-31.2,10s-18.3,22-22.8,29.5c-4.5-8.5-7-15-16.5-32.5
	s-23.5-14.5-29.5-11s-17.5,6.5-25,9c-2.5,2-4,3-7,7c-3-7.5-2.5,4-6.5-9.5s-13.5-27.5-26.5-25s-30,7-39.5,13c2.5,3,4,2.5,7,5
	c-27,46.2-42.5,102.8-41,106.8c-4-4.7,0-13.3-19.7-25.3c39-18.3,45.3-51.7,41.7-68c-4.6-20.5-29.6-32.9-50-29.5
	c-22.9,3.8-40,20.5-44.5,27.5c-5,3-11,2.5-18,4c0.5-5.5,2.5-27.5-0.5-33s-8-10-15.5-7.5c-8,2.5-10,3.5-28,10.5c2,14-1.5,25-2,42
	c-8.5,8-95.5,71.7-93,85.5c3,16.5,57,48.5,77.5,61.5s28.5,9,37,5.5s15-4,22.5-7.5c8.5,5.5,14.5-0.5,31.5-6.5s15-16,13.5-29
	c34,36.5,27,32.5,51,30s25.5-6.5,35-16.5c114.5-27.5,85-87,81-103.5c18,21,29,57.5,33,71.5s9.5,18.5,23,18.5s26.5-8.5,33-11
	s4-9.5,7.5-21.5s13.5,48,27,48.5c67.5-0.5,69.5-52.5,75.5-58.5c1.5,7.5,1.5,10.5,4.5,29.5s27,12.5,42.5,8.5s12-23.5,10-34
	c8,7.5,28,27.5,35,36s16.5,12,27.5,10.5s22-7,30.5-15.5s22-6.5,30.5-5.5c7,6.5,13.5,13,19.5,18.5s12.5,10,20,6s15-4.5,22.5-6.5
	s10.5-3,14.5-7c28,6,33-12.5,38.5-17c33.5,33.5,55.5-6.5,57.5-13.5c12,13,40.5,37.5,50.5,39s25.5-6,31.5-8c31,39,79.5,35.5,108,18.5
	s35-48,36.5-58C1160.8,136.5,1150.8,123.5,1138.3,118.5z M205.3,67c5,14,11.5,25-13,45C193.3,97.5,192.8,77,205.3,67z M296.8,147
	c-4,7-12.5,11.5-18,9.5s0.5-39.5,10-54C295.3,116,300.8,140,296.8,147z M690.3,88.5c-3-20.5,1-32.5,9-34.5
	C699.3,67.5,694.8,79.5,690.3,88.5z M1022.3,115.5c-1-7.5-0.5-8-1-13c5,5,9.5,10,12,12C1028.8,114.5,1025.3,116,1022.3,115.5z
	 M1066.3,155.5c4.5,4.5,4.5,12.5,0,15s-27.5-11.5-34.5-22.5c22-1.5,37-1.5,59-5C1077.3,147.5,1061.3,150.4,1066.3,155.5z"/>
<path class="st2" d="M330.8,94c-8-32-26.5-55.5-30.5-59c2.5-3,9.5-10,3.5-9.5c-21,2.5-33.5,8.5-39.5,13c4.5,3.5,3,3,7,5
	c-14,17-33.5,59.5-40.5,77c-26,61.5,33,52.5,56,43C333.8,148,340.9,134.2,330.8,94z M282.3,159c-25.5,7-36.5-10.5-23-48
	c13.5-37.5,24-47.5,24-47.5c10.5,12.5,17,28,20,53.5S307.8,152,282.3,159z"/>
<path class="st2" d="M343.8,53c9-3,18-6,25-9c5.5,7.5,13,11,36.5,66.5c6.5-12.5,17-46.5,30-51.5s23-7,31.5-10s10.5,21,11,28.5
	s2,53,12.5,65c8-11.5,45.5-72.5-6.5-124c9.5-5.5,16-9.5,24.5-12.5c3,7,39,52.5,67,50.5c-8.5,7.5-7,15-34.5,8.5c0.5,11.5,4,37-36,99
	c-11.5,13-20,11.5-28.5,12s-17.5-15.5-20.5-34s-7-50.5-7-63c-0.5-4.5-15.5,13.5-19.5,71.5c-11,4.5-25.5,6.5-33.5,8.5
	C389.8,149,367.3,74.5,343.8,53z"/>
<path class="st2" d="M709.3,22c10-2,18.5-2,33-8c-18,81.5-38.5,109-30.5,106.5s17.5-2,36.5,11c2,1.5,0-17.5-4-31.5
	c8.5-1,15-1,22-4.5c3.5,11.5,17,54.5,19.5,63c-9.5,6.5-22.5,12.5-37.5,1.5s-33.5-28.5-38-26s-3.5,11.5-5.5,14s-7.5,3.5-14.5,4.5
	s-16.5,3-24.5,5c0-23.5,21.5-41,32-78.5S708.3,32.5,709.3,22z"/>
<g>
	<path class="st2" d="M809.3,74c8.5-13.5,1-13-10-13.5s-17.7,0.9-22,18c-5.5,22-1,42,7,65.5s27,23,34.5,19.5s11.5-4.5,12.5-24
		S800.8,87.5,809.3,74z"/>
	<path class="st2" d="M811.8,47.5c7.1,0.7,18.1-4.9,19.5-17.5c1-9-6-20-21.5-20.5c-7.6-0.2-18,2-20.5,10
		C783.4,38.3,801.8,46.5,811.8,47.5z"/>
</g>
<path class="st2" d="M859.3,155.5c-5-16-16.5-29-4-85c8-1,23.5-15,28.5-7.5s30.5,46,58,69c-4-25.5-34.5-116,44.5-128
	c1,9,2.5,15.5,2.5,15.5s-14.5,1-19.5,5s7,113,9,125c-8,4.5-24,11.5-40,9.5c-10.5-9.5-49.5-42-61-58.5c2,13.5,11,33.5,10,46
	C879.8,147.5,868.3,149.5,859.3,155.5z"/>
<path class="st2" d="M560.3,153.5c-1.5-13.5-1.5-74-3.5-84c7-2,22.7-3.4,30-4c12,12,55,71.5,54,64c-1.6-18.8-9-69,5-98
	c8-16.5,24-9.5,45-21.5c1.5,11,3,9.5,4.5,16c-21.5,4-42.5-1-20,128.5c2,9-14.5,20-39,0.5c-16.9-13.4-28.4-28-50.5-49
	c-1.5,13-3.5,24.5,1,43.5C580.3,153,570.3,155,560.3,153.5z"/>
<path class="st1" d="M969.7,26.3c6.5-2.7,5.7,3.3,4,16.7c-1.7,13.3-5.7,39.3,13.7,110.3c4.3,8,1.7,9.7-2,12.3
	c-3.7,2.7-14,10-17.7-22c-7.3,0.3-11.3,1.3-15.3-1.3c-2.5-1.7-3.7-11.1-2.7-14c0.6-1.7,1.5,0.2,2.3-0.3c2.3-1.3,2-1.7,6-3.7
	s-4.3-54-3.3-74.7C954,38.3,958.7,31,969.7,26.3z"/>
<path class="st2" d="M1004.8,17.5c-11.5,1.5-34.5,1.5-35.5,7c-0.5,2.9-7.4,49.9,1.6,93c-35.1,14.5-20.1,12.5,4,15.5
	c10.3,32.5,32.1,59,75.9,56.5c34.5-1.9,53.5-42.8,47-42c-8,1-17.5,4-26.5,6c4,3.5,3,4.5,5.5,6c1,7.5-0.5,12.5-9.5,18.5
	c-28.5,3.5-57-19-59.5-49c14.5-1,84-1.5,99.5-5.5s9.5-1,14.5-6C1109.3,111,1058.3,110,1004.8,17.5z M1006.3,119.5
	c-3-20.5-4.5-40.5-4.5-59c10.5,13.5,30.5,43.5,58.5,55.5C1042.8,116.5,1023.3,119,1006.3,119.5z"/>
<path class="st1" d="M238.4,177c4.2-11.8,17.6-37.3,19.5-41.8c2.2-1.5,11.3-8.5,11.1-3.2c-0.2,5.3,2,44.8-7.4,55
	c-9.4,10.2-26.7,11.3-24.5,6C239.4,187.7,238.4,177,238.4,177z"/>
<path class="st2" d="M229.3,145c0,8-1.5,10.5-4,19.5c-13.5-26-26-33-32-39.5c92-60,32-100.5,9-97.5S164.3,44,157.8,55
	c-9,2.5-13,3.5-22.5,6c1,11.5-0.5,122,1,132c9-4,22.5-6,28.5-9.5c-4-19-1-42-1.5-48c2.5-0.5,4-1.5,8.5,4c15.5,16,22,33.5,31.5,46.5
	s15.5,3,26,2s19.5,0.5,24-14c3-9.6,5.5-24.5,6-35.5C246.8,143.5,234.8,143.5,229.3,145z M164.8,122c0-5.5,0.5-10.5,0-16.5
	c3-2,0.5-2,5-3c-4.4-34.1,27.2-64,29.5-60.5C214.8,43.9,224.3,116,164.8,122z"/>
<path class="st2" d="M93.8,71c1.2-17.5,2.5-29,2-42c9.5-4,17-7,28-10.5C122.3,31,122.3,31,122.3,31s-2,43,0.5,53s4,13.5,7.5,16.5
	c-7,2.5-20,8.5-27.5,11c-6-6-9.5-4.5-10-27.5c-6.5,3.5-47.5,40-57.5,52c9.5,9,42,38,48,40.5c-1.5-10-8.5-37-12.5-44.5
	c6.5-3.5,21-9,29.5-11c1.5,3.5-1-1.5,1.5,3.5c7.5,0,44,1,48-2.5c-4,6.5-10.5,8-14.5,8s-24,1.5-29.5,2.5c1.5,6,15,55,17,66.5
	c-8,4-19,6.5-26,10c-9.5,2.5-83.2-50.1-90.5-61c-2-3-4-7.5,1.5-11.5S85.8,76,93.8,71z"/>
<line class="st3" x1="270" y1="160" x2="268.9" y2="168.3"/>
<path class="st1" d="M126.6,131.9c12.2-0.3,19.4-1.7,25.1-10.1c0.5,8.9-4.9,14.4-9,16.8c-2.9,1.7-13.7,4.4-17,3.9
	C122.3,142,126.6,131.9,126.6,131.9z"/>
</svg>
